<?xml version="1.0" encoding="UTF-8" standalone="no"?>
<svg
   fill="#000000"
   width="800px"
   height="800px"
   viewBox="0 0 512 512"
   data-name="Layer 1"
   id="Layer_1"
   version="1.1"
   sodipodi:docname="pokeball.svg"
   inkscape:version="1.3.2 (091e20ef0f, 2023-11-25, custom)"
   xmlns:inkscape="http://www.inkscape.org/namespaces/inkscape"
   xmlns:sodipodi="http://sodipodi.sourceforge.net/DTD/sodipodi-0.dtd"
   xmlns="http://www.w3.org/2000/svg"
   xmlns:svg="http://www.w3.org/2000/svg">
  <defs
     id="defs1" />
  <sodipodi:namedview
     id="namedview1"
     pagecolor="#ffffff"
     bordercolor="#000000"
     borderopacity="0.25"
     inkscape:showpageshadow="2"
     inkscape:pageopacity="0.0"
     inkscape:pagecheckerboard="0"
     inkscape:deskcolor="#d1d1d1"
     inkscape:zoom="1.0925"
     inkscape:cx="399.54233"
     inkscape:cy="400.45767"
     inkscape:window-width="1920"
     inkscape:window-height="1041"
     inkscape:window-x="0"
     inkscape:window-y="0"
     inkscape:window-maximized="0"
     inkscape:current-layer="Layer_1" />
  <title
     id="title1" />
  <path
     d="M450.46,256.09C449.35,175.17,399.81,102.71,324,73.79,247.59,44.67,157.49,69,105.82,132.13,54.4,195,46.61,285.58,88.49,355.68c41.8,69.95,123.74,106,203.55,91.63,91-16.37,156.14-98.12,158.35-189.14A20.16,20.16,0,0,0,450.46,256.09ZM119.05,174.38C152.76,118,220.23,87,285,99.43c69.4,13.29,120.43,70.47,128.83,139H318.41c-8.26-27.36-32-48-62.62-48-29.65,0-55.15,20.65-63.11,48H97.74A158,158,0,0,1,119.05,174.38ZM286.13,256.1c-2,38.75-60.67,39.4-60.67,0S284.17,217.33,286.13,256.1Zm24,149.79C246.85,428.58,175,408.74,132.3,356.82a157.53,157.53,0,0,1-34.57-83H192.6c7.91,27.39,33.7,48,63.19,48,30.67,0,54.36-20.68,62.62-48h95.45C406.61,333,367.54,385.32,310.14,405.89Z"
     id="path1" />
  <path
     style="opacity:1;fill:#ff0000;fill-opacity:1;stroke-width:0.915332"
     d="m 153.76068,367.27689 c 3.74131,-29.26296 14.27967,-61.19575 28.92423,-87.64469 33.08619,-59.75561 91.87997,-104.27683 159.64919,-120.89336 20.48945,-5.02387 34.39095,-6.65171 57.20823,-6.69898 25.94962,-0.0538 43.93907,2.3791 67.55917,9.13658 46.61037,13.33477 90.05731,41.80135 122.12007,80.01349 23.56102,28.07985 41.86693,64.17931 51.05776,100.6865 2.57738,10.23768 5.47843,25.3684 5.48434,28.60412 0.003,1.51237 -4.12985,1.60183 -73.99407,1.60183 h -73.99699 l -1.12313,-3.74866 c -1.96206,-6.54878 -7.16349,-17.11099 -12.32873,-25.03517 -34.80171,-53.39054 -108.40725,-61.84891 -154.79203,-17.78791 -12.09491,11.48898 -21.6784,25.97277 -27.02983,40.85092 l -2.05768,5.72082 h -73.64746 -73.64746 z"
     id="path10"
     transform="scale(0.64)" />
  <path
     style="opacity:1;fill:#f9f9f9;fill-opacity:1;stroke:#000000;stroke-width:0.915332;stroke-opacity:1"
     d="m 382.23454,647.52181 c -46.89016,-3.59368 -93.33061,-20.75112 -130.19087,-48.09905 -47.77076,-35.44281 -79.91052,-84.02737 -93.72191,-141.67612 -1.87793,-7.83849 -5.00368,-25.89682 -5.00368,-28.90766 0,-0.61068 24.76928,-0.91839 73.45538,-0.91256 l 73.45537,0.009 3.11551,8.31715 c 12.86664,34.34881 45.29644,60.56098 81.47024,65.85029 10.35845,1.51461 30.42705,0.63044 39.44171,-1.73769 29.32163,-7.70273 52.43723,-26.5694 66.33363,-54.14071 2.15678,-4.27918 4.66523,-10.14875 5.57433,-13.04348 l 1.6529,-5.26316 h 73.97472 73.97472 l -0.003,2.0595 c -0.005,3.80634 -2.85803,18.43915 -5.93886,30.46395 -13.59188,53.05051 -43.86013,100.16904 -86.50673,134.66482 -17.47281,14.13334 -46.23893,30.34459 -67.8399,38.23144 -31.98563,11.67845 -69.2109,16.79277 -103.24364,14.18448 z"
     id="path13"
     transform="scale(0.64)" />
  <path
     style="opacity:1;fill:#f9f9f9;fill-opacity:1;stroke:#000000;stroke-width:0.915332;stroke-opacity:1"
     d="m 385.81236,443.85218 c -20.36591,-5.40572 -32.95195,-22.11953 -32.95195,-43.75898 0,-22.58701 13.48496,-39.43126 35.24028,-44.01913 8.04046,-1.69561 12.98101,-1.70387 20.85753,-0.0349 30.36262,6.43377 46.12392,38.44067 31.98109,64.94489 -3.38301,6.33989 -12.31411,15.05782 -19.05653,18.60166 -10.41707,5.47525 -25.01229,7.20158 -36.07042,4.26641 z"
     id="path14"
     transform="scale(0.64)" />
</svg>
