<svg fill="#000000" version="1.1" id="Layer_1" xmlns="http://www.w3.org/2000/svg" xmlns:xlink="http://www.w3.org/1999/xlink" 
	 viewBox="0 0 512 512" xml:space="preserve">
<g>
	<g>
		<path d="M405.333,192h-42.667C339.136,192,320,211.136,320,234.667v42.667c0,23.53,19.136,42.666,42.667,42.666h42.667
			c23.53,0,42.666-19.136,42.666-42.667v-42.667C448,211.136,428.864,192,405.333,192z"/>
	</g>
</g>
<g>
	<g>
		<path d="M277.334,85.333h-42.667C211.136,85.333,192,104.469,192,128v42.667c0,23.531,19.136,42.667,42.667,42.667h42.667
			c23.531,0,42.667-19.136,42.667-42.667V128C320.001,104.469,300.865,85.333,277.334,85.333z"/>
	</g>
</g>
<g>
	<g>
		<path d="M149.333,0h-42.667C83.136,0,64,19.136,64,42.667v42.667C64,108.864,83.136,128,106.667,128h42.667
			C172.864,128,192,108.864,192,85.333V42.667C192,19.136,172.864,0,149.333,0z"/>
	</g>
</g>
<g>
	<g>
		<path d="M149.333,384h-42.667C83.136,384,64,403.136,64,426.667v42.667C64,492.864,83.136,512,106.667,512h42.667
			c23.53,0,42.666-19.136,42.666-42.667v-42.667C192,403.136,172.864,384,149.333,384z"/>
	</g>
</g>
<g>
	<g>
		<path d="M277.333,298.667h-42.667c-23.531,0-42.667,19.136-42.667,42.667V384c0,23.531,19.136,42.667,42.667,42.667h42.667
			C300.864,426.667,320,407.531,320,384v-42.667C320,317.803,300.864,298.667,277.333,298.667z"/>
	</g>
</g>
</svg>
